<?xml version="1.0" standalone="no"?>
<!DOCTYPE svg PUBLIC "-//W3C//DTD SVG 20010904//EN"
 "http://www.w3.org/TR/2001/REC-SVG-20010904/DTD/svg10.dtd">
<svg version="1.0" xmlns="http://www.w3.org/2000/svg"
 width="768.000000pt" height="768.000000pt" viewBox="0 0 768.000000 768.000000"
 preserveAspectRatio="xMidYMid meet">
<metadata>
Created by potrace 1.14, written by Peter Selinger 2001-2017
</metadata>
<g transform="translate(0.000000,768.000000) scale(0.100000,-0.100000)"
fill="#000000" stroke="none">
<path d="M3670 7073 c-50 -4 -227 -24 -247 -27 -10 -2 -36 -7 -58 -11 -22 -4
-51 -9 -65 -11 -58 -10 -231 -58 -328 -90 -307 -103 -643 -295 -892 -510 -79
-67 -263 -257 -326 -334 -404 -500 -616 -1106 -608 -1734 1 -118 9 -249 19
-316 63 -439 191 -785 420 -1136 51 -77 101 -151 112 -165 191 -227 255 -293
410 -423 483 -405 1070 -624 1688 -629 169 -2 343 6 400 18 11 2 40 7 65 10
216 25 572 140 799 258 423 219 768 527 1028 917 330 495 485 1091 440 1700
-36 498 -222 993 -522 1395 -261 349 -576 615 -953 804 -236 118 -511 210
-742 248 -25 4 -47 7 -50 8 -3 1 -34 5 -70 9 -36 4 -78 10 -95 12 -36 5 -376
11 -425 7z m138 -302 c0 -133 -3 -243 -6 -245 -4 -2 -50 -7 -102 -10 -52 -4
-106 -8 -120 -11 -14 -2 -43 -6 -65 -9 -319 -42 -674 -191 -951 -399 -95 -72
-110 -84 -182 -151 l-32 -30 -170 169 c-94 93 -170 174 -170 180 1 14 154 147
266 231 343 254 799 441 1199 490 28 4 70 9 95 13 24 3 88 7 141 9 l97 4 0
-241z m332 224 c14 -2 44 -7 65 -9 367 -43 799 -211 1131 -442 138 -95 334
-261 334 -281 0 -10 -293 -303 -303 -303 -4 0 -6 14 -5 32 3 29 0 33 -27 38
-25 4 -31 11 -38 49 -9 44 -26 71 -46 71 -6 0 -11 4 -11 9 0 19 -55 71 -75 71
-12 0 -31 13 -43 30 -16 21 -31 30 -51 30 -16 0 -42 7 -57 15 -30 15 -93 11
-105 -7 -14 -21 -95 -11 -159 20 -238 115 -574 197 -826 201 l-51 1 -1 246 0
247 122 -7 c66 -3 132 -8 146 -11z m-339 -544 c4 -1 6 -98 5 -218 -1 -208 -2
-216 -21 -219 -11 -1 -56 -5 -100 -8 -189 -14 -434 -87 -604 -178 -91 -49
-241 -152 -311 -212 l-64 -57 -156 156 -155 155 55 50 c159 147 418 309 616
387 114 44 285 95 364 108 19 3 60 10 90 15 30 5 91 12 135 16 44 4 81 8 83 9
2 2 43 -1 63 -4z m239 -6 c96 -8 232 -33 340 -62 164 -43 403 -140 373 -150
-7 -3 -13 -13 -13 -24 0 -14 7 -19 25 -19 16 0 25 -6 25 -15 0 -9 8 -19 18
-22 32 -12 58 -69 53 -115 -1 -10 10 -29 25 -42 26 -22 27 -26 17 -60 -6 -20
-7 -36 -3 -36 10 0 30 -56 30 -86 0 -28 30 -33 50 -9 7 8 29 15 50 15 31 0 44
-7 69 -35 17 -20 31 -44 31 -53 0 -20 -112 -135 -135 -138 -22 -3 -20 52 2 65
15 8 11 16 -31 65 -35 41 -54 56 -73 56 -28 0 -63 25 -63 44 0 13 -65 82 -97
103 -12 8 -27 12 -33 8 -16 -10 -12 -35 8 -35 9 0 28 -12 41 -26 21 -22 23
-29 13 -45 -17 -27 -15 -39 8 -39 15 0 20 -7 20 -25 0 -14 4 -25 10 -25 11 0
45 -48 38 -55 -8 -9 -188 116 -188 130 0 18 17 28 25 15 11 -17 35 -11 35 10
0 27 -29 40 -78 33 -32 -4 -42 -10 -42 -24 0 -18 -1 -18 -32 -1 -45 25 -186
80 -253 99 -138 38 -245 56 -400 66 l-30 2 -1 119 c-1 100 1 119 15 124 21 8
41 28 41 40 0 6 -13 15 -29 20 -27 10 -28 12 -26 73 1 35 3 64 4 65 2 2 90 -4
161 -11z m-1906 -404 l169 -169 -69 -79 c-206 -233 -362 -517 -450 -818 -47
-160 -81 -372 -83 -522 l-1 -42 -246 0 -247 -1 7 113 c33 596 260 1149 656
1601 41 47 80 85 85 86 6 0 86 -76 179 -169z m3629 137 c212 -244 313 -391
431 -626 127 -254 221 -554 251 -808 3 -27 8 -58 10 -70 3 -12 7 -76 11 -142
l6 -121 -246 -1 -246 0 -1 42 c0 24 -2 57 -4 73 -2 17 -6 59 -9 95 -17 177
-79 421 -150 585 -25 57 -24 81 5 88 24 6 26 49 3 71 -26 26 -83 109 -98 142
-8 18 -21 36 -29 40 -8 5 -19 19 -26 32 -6 12 -18 22 -25 22 -19 0 -62 53 -86
106 -13 27 -27 44 -37 44 -23 0 -83 59 -83 82 0 11 -7 18 -19 18 -14 0 -17 6
-13 28 3 18 52 76 156 180 83 83 155 152 161 152 5 0 22 -15 38 -32z m-1955
-474 c0 -134 -3 -244 -6 -245 -4 0 -23 -2 -42 -4 -233 -20 -478 -122 -630
-262 -14 -13 -27 -23 -30 -23 -3 0 -82 77 -175 170 l-170 170 45 43 c202 189
521 338 805 377 50 6 97 13 105 14 8 1 33 2 56 3 l41 0 1 -243z m300 221 c165
-29 321 -82 468 -160 83 -44 234 -144 234 -155 0 -5 16 -18 36 -29 20 -12 34
-25 30 -28 -3 -3 4 -11 16 -17 12 -6 23 -16 25 -21 2 -6 -73 -86 -165 -178
l-169 -168 -87 65 c-144 109 -342 193 -496 212 -25 3 -58 7 -75 9 -16 2 -35 4
-41 4 -8 1 -12 71 -12 247 l1 246 76 -6 c42 -3 113 -13 159 -21z m-1600 -258
l154 -154 -57 -64 c-233 -266 -377 -623 -398 -989 l-2 -45 -221 -2 -221 -2 3
32 c1 17 5 72 9 121 3 49 8 92 9 95 2 3 7 31 10 61 25 206 136 510 267 727 80
131 266 373 288 373 3 0 75 -69 159 -153z m2656 -90 c15 -19 26 -39 26 -45 0
-18 31 -14 45 5 14 19 45 11 45 -13 0 -31 32 -84 51 -84 10 0 21 -4 24 -10 3
-5 15 -10 25 -10 10 0 27 -11 38 -25 12 -15 30 -25 46 -25 14 0 31 -7 38 -16
13 -16 66 -75 93 -105 8 -9 15 -21 15 -27 0 -7 7 -12 16 -12 9 0 18 -9 21 -20
6 -24 28 -25 67 -5 15 8 30 15 31 15 5 0 36 -81 66 -171 28 -84 64 -232 75
-307 3 -20 7 -44 9 -52 5 -17 18 -174 18 -205 -1 -60 17 -55 -221 -55 l-219 1
-3 57 c-5 69 -4 216 2 294 3 53 2 57 -20 63 -12 3 -27 3 -31 0 -5 -2 -11 8
-14 23 -3 15 -1 30 5 33 6 4 4 10 -5 15 -9 5 -18 28 -21 54 -3 25 -10 46 -15
48 -6 2 -7 10 -4 18 3 8 0 14 -7 14 -8 0 -10 8 -7 23 7 24 -5 51 -23 53 -5 1
-14 2 -18 3 -13 2 -44 60 -37 71 3 6 13 10 21 10 18 0 18 14 1 32 -7 7 -18 21
-24 31 -9 17 -11 18 -26 3 -15 -15 -18 -14 -42 23 -15 22 -25 48 -24 58 2 10
-14 36 -34 57 -20 22 -37 46 -37 53 0 7 -7 10 -15 7 -20 -8 -47 15 -40 35 2 9
0 23 -5 31 -7 11 0 25 27 52 21 21 43 38 50 38 6 0 23 -15 37 -33z m-2282
-284 c93 -92 168 -171 168 -175 0 -4 -11 -18 -25 -32 -14 -14 -49 -62 -79
-108 -69 -104 -100 -135 -142 -143 -19 -3 -34 -12 -34 -20 0 -8 8 -12 20 -10
11 2 22 -1 26 -6 11 -18 -16 -37 -61 -43 -24 -4 -49 -13 -55 -21 -7 -8 -23
-13 -36 -11 -27 5 -55 -25 -79 -84 -4 -8 -11 -23 -16 -32 -5 -10 -9 -25 -9
-33 0 -8 -4 -15 -10 -15 -5 0 -10 -18 -10 -40 0 -27 -5 -43 -15 -46 -8 -4 -15
-16 -15 -29 0 -31 -16 -35 -136 -34 l-105 1 6 66 c10 108 21 189 30 222 2 8 7
29 10 47 17 102 109 325 185 448 64 104 191 265 209 265 3 0 81 -75 173 -167z
m2125 133 c13 -11 23 -24 23 -29 0 -6 9 -19 20 -31 47 -48 83 -95 121 -158 39
-65 44 -93 14 -81 -11 4 -15 -2 -15 -20 0 -14 -4 -29 -10 -32 -16 -10 -12 -38
5 -31 8 3 15 1 15 -4 0 -6 11 -10 25 -10 13 0 29 -6 34 -12 6 -7 23 -29 39
-48 27 -32 76 -158 88 -226 4 -21 2 -25 -8 -16 -9 7 -17 7 -28 -2 -19 -14 -40
-51 -40 -69 0 -32 -69 -64 -106 -50 -18 7 -18 27 0 42 8 7 12 21 9 31 -3 11
-1 20 5 20 5 0 12 14 14 31 4 24 -1 36 -19 53 -13 13 -32 22 -41 21 -37 -4
-72 -18 -72 -28 0 -18 -32 -47 -51 -47 -16 0 -17 4 -9 26 12 30 13 54 3 53
-39 -6 -62 3 -71 30 -15 43 -58 81 -92 81 -16 0 -31 4 -34 9 -3 5 -20 12 -38
15 -33 6 -78 58 -78 90 0 19 -39 66 -55 66 -8 0 -17 5 -21 11 -8 14 326 350
340 342 6 -4 20 -16 33 -27z m-1199 -254 l0 -217 -79 -15 -79 -16 0 23 c0 30
-18 29 -30 -1 -5 -13 -18 -27 -29 -31 -12 -3 -21 -12 -21 -18 -1 -7 -26 -29
-57 -50 l-56 -38 -153 152 c-84 83 -150 158 -147 164 8 21 154 121 238 163
123 61 260 99 366 101 l47 1 0 -218z m227 202 c148 -30 355 -125 431 -199 6
-5 23 -19 37 -30 15 -11 27 -23 27 -27 0 -15 -29 -8 -39 10 -7 11 -13 13 -18
6 -5 -6 -18 -15 -31 -19 -30 -9 -26 -41 5 -37 39 5 32 -14 -26 -72 -40 -40
-66 -57 -87 -59 -27 -2 -29 0 -26 28 l3 30 -21 -22 c-11 -13 -27 -23 -34 -23
-16 0 -31 -63 -16 -68 5 -2 10 -10 10 -18 0 -8 6 -14 13 -14 7 -1 4 -7 -7 -15
-10 -8 -22 -12 -27 -10 -4 3 -10 1 -14 -4 -3 -6 -32 7 -66 29 -33 21 -65 41
-72 44 -9 3 -9 6 0 13 14 10 33 57 33 83 0 13 -5 17 -19 13 -20 -5 -76 -53
-82 -71 -3 -8 -20 -8 -70 0 l-66 12 -1 219 0 219 66 -6 c37 -3 81 -9 97 -12z
m-801 -433 c111 -111 125 -129 107 -134 -12 -3 -27 0 -34 7 -8 9 -20 10 -43 3
-29 -9 -37 -6 -92 37 -82 62 -103 69 -152 50 -22 -9 -42 -24 -45 -35 -4 -10
-13 -19 -21 -19 -10 0 -4 17 22 58 39 60 116 161 124 162 3 0 63 -58 134 -129z
m1399 70 c30 -24 20 -36 -27 -33 -40 4 -46 1 -71 -32 -31 -41 -49 -45 -66 -15
-9 18 -6 26 25 58 30 31 42 36 79 36 24 0 51 -6 60 -14z m61 -98 c3 -13 9 -32
12 -43 4 -15 1 -20 -13 -20 -11 0 -24 5 -31 12 -16 16 -25 4 -25 -32 0 -56
-37 -28 -52 39 -6 28 -4 33 14 38 13 3 20 12 18 26 -1 15 5 22 23 27 27 7 42
-7 54 -47z m-863 -32 c0 -3 3 -18 5 -33 4 -23 2 -26 -18 -20 -13 3 -26 10 -29
15 -9 13 -31 -2 -25 -18 3 -8 -2 -11 -15 -8 -29 8 -26 61 4 65 40 6 77 5 78
-1z m-9 -138 c10 -9 29 -17 42 -17 14 -1 28 -5 32 -9 4 -4 17 -7 29 -7 24 0
95 -70 95 -94 0 -14 -15 -29 -32 -32 -5 -1 -11 -2 -15 -3 -5 -1 1 -7 11 -13
16 -9 23 -6 42 17 32 41 56 28 48 -25 -4 -27 -3 -40 5 -40 29 0 -9 -87 -44
-100 -33 -13 -37 -25 -10 -28 13 -1 27 3 30 8 3 6 10 10 15 10 13 0 43 -81 45
-120 2 -42 11 -60 31 -60 15 0 19 -12 7 -23 -4 -4 -8 -26 -9 -49 -2 -24 -8
-44 -13 -46 -6 -2 -11 -12 -11 -23 0 -16 -7 -18 -61 -15 -64 4 -92 0 -84 -14
3 -4 -6 -15 -20 -24 -15 -10 -22 -22 -19 -31 4 -8 1 -15 -5 -15 -6 0 -11 -13
-11 -29 0 -17 -5 -33 -11 -36 -5 -4 -14 -17 -19 -30 -8 -22 -13 -24 -72 -20
-35 3 -76 7 -93 10 -40 8 -131 50 -178 82 l-38 26 28 22 c18 15 38 21 60 19
18 -2 33 1 33 7 0 5 9 9 20 9 11 0 20 -4 20 -10 0 -16 15 -12 40 10 13 11 26
20 30 20 9 0 23 40 20 59 -1 7 8 23 20 36 14 15 22 39 24 69 3 42 1 47 -27 61
-16 8 -39 15 -49 15 -10 0 -18 6 -17 13 5 42 -2 65 -23 71 -28 7 -48 -12 -52
-48 -2 -15 -9 -31 -16 -36 -7 -4 -14 -19 -15 -34 -5 -43 -28 -85 -49 -88 -29
-4 -76 -87 -76 -136 l-1 -27 -30 35 c-62 71 -108 205 -51 148 16 -16 15 -8 -2
34 -8 19 -24 41 -36 49 -15 10 -22 28 -26 67 -5 57 1 62 37 33 19 -16 22 -22
12 -32 -16 -16 -17 -46 -1 -55 6 -4 16 0 22 8 14 19 49 28 68 17 12 -6 17 -3
21 11 3 11 1 23 -4 26 -14 8 0 24 21 24 20 0 34 25 31 56 -1 11 10 33 24 48
45 48 37 83 -12 53 -18 -11 -25 9 -8 23 9 7 23 28 31 46 11 23 23 34 38 34 12
0 31 7 42 15 10 8 26 15 35 15 27 0 70 40 68 63 -1 12 -1 30 -1 40 2 18 1 19
64 -40z m1562 -135 c-3 -10 -9 -18 -12 -18 -11 0 -2 -79 9 -86 5 -3 9 1 9 8 0
10 2 10 8 1 4 -7 7 -31 7 -55 l0 -43 -157 -3 c-111 -2 -158 1 -158 9 0 6 14
16 30 22 30 12 41 41 18 50 -9 3 -7 11 7 25 14 15 35 22 75 24 51 3 56 5 70
35 8 18 20 33 27 33 18 0 53 50 54 79 1 17 4 10 10 -19 5 -25 6 -53 3 -62z
m-2626 -86 c16 -20 15 -35 -2 -77 -15 -35 -15 -35 -78 -35 -72 0 -88 10 -88
55 0 58 42 88 110 79 25 -3 51 -13 58 -22z m-1057 -216 c3 -149 46 -417 83
-523 8 -24 14 -43 13 -44 -1 -1 -15 -2 -32 -4 -33 -3 -64 10 -81 34 -10 13
-17 13 -53 1 -23 -7 -43 -21 -46 -32 -4 -10 -15 -23 -25 -28 -15 -8 -21 -6
-31 11 -12 22 0 38 29 39 6 0 12 4 12 9 0 14 -69 18 -110 7 -43 -12 -41 -11
-44 -29 -1 -8 -8 -22 -15 -30 -9 -12 -10 -21 -2 -36 8 -13 8 -28 1 -46 -7 -18
-7 -33 0 -46 6 -11 8 -24 5 -29 -3 -5 1 -28 10 -52 8 -24 15 -51 15 -60 0 -10
4 -18 9 -18 5 0 11 -14 15 -31 5 -25 10 -30 28 -27 23 3 27 21 16 82 -2 10 4
23 13 29 14 8 24 2 56 -32 27 -30 44 -40 56 -35 9 3 17 12 17 20 0 25 17 15
45 -27 18 -25 39 -42 56 -46 15 -3 29 -13 32 -24 3 -12 14 -19 30 -19 20 0 29
-10 50 -59 28 -66 54 -86 98 -77 25 5 32 1 53 -33 30 -47 74 -80 111 -83 20
-2 49 -26 108 -91 l80 -88 -169 -170 c-93 -93 -172 -169 -177 -169 -11 0 -32
22 -108 110 -201 233 -363 507 -473 796 -91 241 -147 513 -162 785 l-6 105
246 0 246 0 1 -40z m511 -51 c4 -49 4 -93 2 -97 -3 -4 -14 -8 -25 -8 -11 0
-24 -11 -31 -26 -7 -14 -30 -45 -51 -67 -51 -55 -58 -77 -62 -172 -4 -104 -10
-122 -46 -130 -16 -4 -29 -11 -29 -17 0 -6 -17 -8 -40 -6 -22 2 -40 0 -40 -4
0 -5 -4 -8 -10 -8 -15 0 -63 178 -89 335 -16 93 -27 231 -22 280 1 7 75 11
219 10 l217 0 7 -90z m248 80 c0 -7 -8 -19 -19 -29 -10 -9 -18 -27 -17 -39 1
-12 -4 -26 -11 -32 -7 -5 -15 -24 -19 -41 -5 -25 -2 -32 17 -40 l23 -10 -22
-22 c-12 -12 -22 -26 -22 -32 0 -16 -26 -12 -41 6 -7 9 -23 20 -36 25 -13 5
-23 16 -24 26 0 10 -2 27 -4 37 -2 11 -6 52 -10 91 l-6 71 96 0 c65 0 95 -3
95 -11z m292 -24 c4 -30 0 -40 -24 -61 -31 -27 -37 -57 -13 -66 23 -9 19 -37
-5 -31 -24 6 -26 -5 -5 -23 18 -15 45 -6 45 14 0 7 6 16 14 19 11 4 19 -9 31
-51 44 -154 99 -267 190 -388 l66 -87 -170 -171 -170 -170 -31 29 c-33 32 -36
45 -18 75 10 16 10 24 0 40 -6 11 -12 27 -12 37 0 9 -12 34 -26 55 -19 27 -27
52 -28 87 0 27 -4 52 -8 56 -10 11 2 35 18 35 17 0 17 5 0 55 -8 22 -19 41
-25 41 -6 1 -15 2 -21 3 -5 0 -10 29 -10 62 0 58 -3 66 -53 138 -51 74 -52 78
-52 146 0 69 0 70 28 73 15 2 27 8 27 13 0 5 7 9 15 9 14 0 20 13 16 34 -1 6
0 20 3 32 7 25 23 28 153 30 l61 1 4 -36z m518 4 c0 -24 -5 -35 -15 -35 -8 0
-15 -4 -15 -10 0 -5 -11 -10 -25 -10 -18 0 -25 5 -25 20 0 11 7 20 15 20 9 0
20 11 25 25 15 38 40 32 40 -10z m2134 -15 c-5 -229 -81 -488 -205 -703 -78
-133 -227 -321 -230 -289 -1 7 -3 17 -4 22 -1 6 -3 19 -4 29 0 11 -7 26 -15
33 -8 9 -12 28 -10 46 5 42 -23 43 -51 2 -11 -16 -24 -29 -29 -27 -13 4 -18
45 -6 52 6 3 10 15 10 26 0 10 4 19 9 19 17 0 33 172 19 202 -11 23 -40 30
-72 19 -20 -8 -26 -17 -26 -40 0 -25 -5 -30 -32 -36 -18 -4 -38 -11 -43 -16
-9 -6 -28 -6 -53 0 -1 1 2 9 7 20 6 10 24 21 41 24 20 4 34 15 40 31 5 13 17
27 28 30 26 9 72 58 76 83 6 27 34 83 44 84 4 1 27 3 52 4 24 2 46 7 48 13 1
5 9 18 17 28 11 15 16 17 26 7 15 -15 42 -17 67 -4 60 30 100 45 124 45 15 0
29 5 32 11 7 20 -51 81 -93 98 -43 18 -48 22 -55 58 -8 46 -27 84 -58 116 -54
55 -42 60 163 59 l184 -1 -1 -45z m509 6 c-12 -189 -23 -271 -53 -401 -17 -73
-59 -208 -92 -295 -55 -147 -209 -408 -319 -540 -103 -125 -122 -142 -125
-112 0 4 -4 32 -9 62 -5 30 -8 59 -6 64 1 5 -3 22 -10 38 -29 69 -99 53 -104
-24 -1 -22 -20 -9 -93 65 l-83 83 31 35 c95 106 205 269 263 391 62 131 121
313 133 411 3 23 7 48 10 56 2 7 7 52 10 100 3 47 7 91 9 96 2 7 79 11 222 11
l219 1 -3 -41z m553 -66 c-5 -98 -27 -289 -41 -350 -3 -14 -7 -34 -9 -45 -22
-111 -98 -374 -116 -400 -3 -5 -15 -32 -25 -60 -25 -69 -122 -264 -180 -360
-91 -151 -214 -315 -341 -452 l-30 -33 -174 175 -174 175 39 42 c22 23 42 45
45 48 92 96 244 331 318 492 71 152 143 376 166 513 19 111 26 171 32 255 3
52 8 98 10 101 2 3 112 6 244 6 l241 -1 -5 -106z m-3594 -73 c21 -19 35 -23
72 -21 42 3 48 0 69 -31 16 -24 27 -31 37 -25 18 11 42 1 36 -16 -6 -17 32
-64 51 -64 7 0 13 -6 13 -12 0 -10 3 -9 9 1 5 7 6 22 4 32 -4 12 0 19 10 19
20 0 29 -27 17 -50 -7 -13 -6 -21 4 -29 7 -6 14 -23 14 -37 0 -13 2 -28 6 -31
11 -11 38 23 39 50 1 16 11 31 25 38 15 9 22 22 22 43 1 28 19 66 33 66 3 0
22 -23 42 -51 l37 -52 -156 -156 -156 -156 -25 30 c-66 79 -133 187 -172 280
-21 49 -65 195 -59 195 2 0 14 -11 28 -23z m1171 -228 c4 -15 -1 -23 -19 -31
-31 -14 -38 -7 -23 26 15 31 35 34 42 5z m-520 -33 c76 -51 189 -92 261 -95
12 -1 16 -6 12 -17 -4 -9 -1 -23 6 -32 10 -12 10 -16 0 -19 -6 -3 -10 -9 -6
-14 3 -5 0 -9 -5 -9 -6 0 -11 -11 -11 -25 0 -18 4 -23 15 -19 8 4 15 1 15 -5
0 -6 -4 -11 -9 -11 -17 0 -22 -34 -7 -46 9 -6 14 -20 11 -34 -7 -38 -27 -43
-85 -25 -15 5 -18 2 -15 -14 2 -11 0 -23 -6 -26 -5 -4 -9 -24 -9 -46 0 -29 4
-39 16 -39 9 0 12 -5 8 -11 -5 -9 8 -10 45 -7 48 5 52 4 49 -16 -4 -29 -55
-32 -161 -10 -174 35 -348 119 -466 224 l-34 30 154 155 c85 85 155 155 155
155 1 0 31 -20 67 -44z m937 -40 c0 -20 4 -23 21 -19 14 4 26 0 33 -9 7 -9 23
-18 36 -20 17 -2 26 -10 28 -25 3 -19 -1 -23 -22 -23 -14 0 -28 5 -31 10 -4 6
-14 8 -24 5 -34 -11 -96 78 -67 97 19 13 26 9 26 -16z m-380 -15 c0 -5 -9 -12
-19 -16 -13 -4 -18 -12 -14 -21 3 -8 -3 -24 -13 -35 -14 -15 -25 -18 -48 -13
-17 3 -37 11 -44 16 -9 8 -15 2 -23 -21 -6 -17 -20 -36 -31 -42 -18 -10 -19
-8 -17 38 3 47 4 48 39 53 19 3 47 0 61 -7 29 -13 39 -9 39 17 0 10 13 21 33
28 17 5 33 10 35 11 1 1 2 -3 2 -8z m234 -119 c2 -4 24 -9 47 -11 49 -2 59 -7
59 -26 0 -18 -55 -45 -92 -45 -18 0 -28 -5 -28 -15 0 -8 -6 -15 -13 -15 -24 0
-34 -20 -28 -58 8 -48 32 -52 77 -13 19 17 41 31 48 31 13 0 43 -28 35 -33
-14 -10 -65 -41 -101 -61 -32 -18 -46 -21 -54 -12 -7 6 -26 22 -43 36 -36 29
-43 65 -10 57 17 -5 20 -2 16 14 -3 10 -1 22 4 25 13 7 11 64 -2 64 -5 0 -7 5
-4 10 3 6 19 10 36 10 24 0 29 4 29 25 0 24 13 34 24 17z m-424 -42 c0 -5 -4
-10 -10 -10 -5 0 -10 5 -10 10 0 6 5 10 10 10 6 0 10 -4 10 -10z m-750 -131
c47 -42 132 -99 204 -138 55 -29 206 -85 250 -93 17 -3 11 -12 -33 -56 -30
-28 -60 -52 -67 -52 -8 0 -14 -11 -14 -25 0 -29 -17 -62 -43 -85 -22 -19 -14
-48 17 -60 12 -4 22 -17 23 -29 1 -12 9 -28 17 -36 8 -8 20 -31 27 -50 7 -19
15 -35 19 -36 31 -4 45 -10 51 -21 5 -8 28 -15 55 -17 26 -1 53 -5 58 -9 6 -3
31 -9 55 -12 25 -3 46 -11 49 -19 4 -11 -10 -12 -78 -7 -170 15 -313 47 -465
107 -162 63 -337 170 -455 277 l-55 50 170 171 c94 94 172 171 175 171 3 0 21
-14 40 -31z m963 3 c8 -7 20 -26 27 -42 7 -18 20 -30 31 -30 10 0 21 -5 24
-10 4 -6 11 -8 16 -5 5 4 12 0 15 -9 3 -8 13 -12 22 -9 15 4 15 3 2 -6 -22
-16 -167 -61 -196 -61 -14 0 -23 4 -19 9 7 12 -22 41 -40 41 -7 0 -15 -6 -18
-13 -4 -12 -50 -16 -89 -8 -4 0 -7 20 -5 43 2 44 2 43 78 78 8 5 31 0 52 -11
21 -10 46 -19 55 -21 21 -4 23 -29 3 -44 -10 -8 -11 -13 -3 -18 12 -7 26 14
35 55 6 23 2 28 -34 42 -22 9 -38 20 -35 26 8 13 60 8 79 -7z m371 -111 c9
-14 152 -61 188 -61 19 0 39 -5 44 -10 6 -6 30 -13 55 -16 69 -8 78 -13 55
-30 -12 -8 -44 -14 -82 -14 -49 0 -72 6 -117 30 -31 17 -67 30 -79 30 -28 0
-130 48 -105 49 9 1 17 8 17 16 0 16 16 20 24 6z m619 -388 c-3 -7 -9 -13 -14
-13 -4 0 -6 -7 -3 -15 4 -8 12 -15 20 -15 8 0 14 7 14 15 0 21 13 19 39 -8 14
-16 19 -30 15 -41 -4 -11 -1 -21 6 -26 8 -5 15 -19 17 -31 5 -30 7 -32 55 -38
l42 -6 -79 -68 c-76 -66 -239 -187 -251 -187 -3 0 4 12 15 26 29 37 27 68 -5
83 -29 13 -28 31 4 46 12 5 22 15 22 22 0 6 14 25 30 41 48 48 41 70 -45 138
-41 32 -77 68 -80 79 -9 31 12 77 48 107 l32 27 61 -62 c34 -34 59 -68 57 -74z
m-2158 -43 c197 -131 393 -209 640 -254 17 -3 64 -9 105 -12 77 -7 110 -11
122 -13 12 -2 6 -429 -6 -434 -12 -5 -49 -3 -166 8 -99 9 -119 13 -226 36
-236 51 -503 162 -702 294 -89 58 -283 212 -297 235 -3 6 7 24 23 41 l29 31
11 -31 11 -31 81 0 c71 0 85 3 114 25 26 20 45 25 105 27 91 3 106 12 97 61
-4 21 -11 37 -15 37 -5 0 -11 9 -14 20 -6 23 -10 25 88 -40z m-581 -11 c30
-23 33 -41 10 -59 -13 -11 -20 -9 -46 17 -50 50 -20 86 36 42z m1644 -166 c38
-6 53 -23 20 -24 -13 0 -51 -3 -86 -5 -59 -5 -62 -5 -59 16 5 30 25 39 61 28
17 -6 46 -13 64 -15z m-1345 -244 c217 -146 534 -280 747 -315 14 -2 34 -6 46
-9 22 -5 83 -15 124 -21 14 -1 68 -6 120 -9 52 -3 100 -8 107 -10 8 -3 11 -72
11 -246 l-1 -242 -121 6 c-67 4 -132 8 -146 11 -14 2 -47 7 -75 11 -27 3 -57
8 -65 10 -8 2 -32 6 -53 10 -105 15 -355 88 -492 143 -150 60 -333 157 -477
254 -136 91 -368 283 -368 304 0 5 76 85 170 177 l169 169 93 -82 c51 -44 146
-117 211 -161z m2850 72 c92 -92 167 -171 167 -175 0 -10 -55 -62 -160 -150
-311 -260 -744 -468 -1130 -542 -14 -3 -43 -9 -65 -14 -22 -5 -62 -11 -90 -15
-27 -3 -66 -8 -85 -10 -19 -3 -87 -8 -151 -12 l-117 -6 0 242 c0 174 3 243 11
246 7 2 53 6 102 9 50 3 110 8 135 12 63 8 282 53 287 58 3 2 24 -3 49 -11 31
-11 44 -20 44 -34 0 -18 20 -26 33 -12 4 3 23 7 43 9 19 1 43 9 53 18 10 9 24
16 32 16 12 0 200 154 299 244 19 18 62 51 95 73 85 58 220 167 254 206 8 9
18 17 21 17 3 0 80 -76 173 -169z m-1410 75 c3 -8 24 -20 46 -26 37 -10 46
-19 42 -43 -1 -5 7 -11 18 -14 23 -6 36 -51 25 -85 -14 -44 -12 -78 5 -87 9
-5 12 -13 8 -17 -10 -10 23 -44 43 -44 22 0 70 -37 70 -54 0 -8 -28 -18 -72
-26 -40 -8 -77 -15 -83 -16 -31 -6 -87 -14 -140 -19 -126 -12 -162 -13 -172
-7 -15 10 -15 429 1 435 6 2 38 5 71 6 33 2 62 5 64 7 11 11 69 3 74 -10z"/>
<path d="M4284 6868 c-3 -5 6 -8 20 -8 14 0 28 4 31 10 4 6 -5 9 -20 8 -15 -2
-29 -6 -31 -10z"/>
<path d="M4431 6811 c-20 -6 -22 -8 -9 -19 12 -10 18 -9 28 3 16 19 11 23 -19
16z"/>
<path d="M4244 6765 c-11 -7 -34 -15 -50 -18 -17 -3 -40 -9 -50 -15 -11 -5
-24 -7 -31 -5 -16 6 -27 -16 -14 -30 13 -17 73 -21 82 -6 4 8 32 11 74 10 51
-1 70 2 79 14 6 9 21 17 34 18 12 0 22 7 22 14 0 14 -8 16 -57 13 -17 -1 -40
3 -51 9 -14 7 -24 6 -38 -4z"/>
<path d="M3977 6700 c-20 -11 -43 -20 -51 -20 -7 0 -19 -7 -26 -15 -11 -13 -7
-15 25 -15 21 0 46 -7 55 -15 10 -9 30 -18 45 -21 16 -3 42 -16 58 -30 22 -19
33 -22 41 -14 8 8 5 16 -12 30 -13 11 -25 28 -27 39 -5 26 -25 64 -39 73 -17
12 -28 10 -69 -12z"/>
<path d="M5090 6381 c-34 -9 -39 -46 -7 -55 13 -3 40 -17 60 -30 l37 -25 0 27
c-1 46 -51 92 -90 83z"/>
<path d="M3541 6222 c12 -18 77 -44 91 -36 13 8 9 24 -6 24 -7 0 -19 7 -26 15
-7 8 -25 15 -41 15 -26 0 -28 -2 -18 -18z"/>
<path d="M2880 6050 c0 -5 5 -10 11 -10 5 0 7 5 4 10 -3 6 -8 10 -11 10 -2 0
-4 -4 -4 -10z"/>
<path d="M4250 6334 c0 -8 5 -12 10 -9 6 3 10 10 10 16 0 5 -4 9 -10 9 -5 0
-10 -7 -10 -16z"/>
<path d="M4281 6311 c-12 -8 -9 -12 15 -22 16 -7 37 -20 47 -28 13 -10 20 -12
28 -4 8 8 4 18 -14 37 -27 27 -52 32 -76 17z"/>
<path d="M4190 6303 c0 -8 33 -32 43 -33 15 0 -11 33 -27 36 -9 1 -16 0 -16
-3z"/>
<path d="M4250 6202 c0 -5 7 -13 16 -16 10 -4 14 -1 12 6 -5 15 -28 23 -28 10z"/>
<path d="M4394 6048 c8 -18 26 -39 40 -46 14 -7 26 -17 26 -21 0 -5 10 -11 23
-15 12 -3 37 -19 55 -35 28 -26 32 -28 32 -10 0 10 -5 19 -10 19 -6 0 -20 11
-32 25 -12 14 -27 25 -33 25 -18 0 -48 37 -40 49 4 7 -4 11 -19 11 -16 0 -26
6 -26 15 0 8 -7 15 -15 15 -12 0 -12 -5 -1 -32z"/>
<path d="M3380 5529 c0 -5 5 -7 10 -4 6 3 10 8 10 11 0 2 -4 4 -10 4 -5 0 -10
-5 -10 -11z"/>
<path d="M3322 5518 c2 -6 14 -13 27 -15 27 -4 20 12 -9 20 -13 3 -20 1 -18
-5z"/>
<path d="M5110 5521 c0 -6 5 -13 10 -16 6 -3 10 1 10 9 0 9 -4 16 -10 16 -5 0
-10 -4 -10 -9z"/>
<path d="M5238 5424 c-4 -3 -3 -14 2 -24 5 -10 7 -20 4 -23 -3 -2 16 -15 41
-27 51 -25 87 -15 38 11 -15 8 -39 27 -53 42 -14 16 -28 25 -32 21z"/>
<path d="M5300 5291 c0 -6 5 -13 10 -16 6 -4 8 -11 5 -16 -4 -5 3 -9 14 -9 24
0 36 -17 33 -46 -2 -12 5 -29 14 -39 26 -25 39 4 19 41 -8 16 -15 34 -15 40 0
12 -54 54 -70 54 -5 0 -10 -4 -10 -9z"/>
<path d="M5412 5115 c3 -11 -1 -26 -8 -32 -9 -10 -10 -20 -2 -45 17 -51 31
-81 46 -100 8 -10 12 -29 10 -42 -4 -17 1 -31 15 -43 19 -18 19 -17 13 27 -3
25 -6 60 -6 79 1 19 -6 38 -15 45 -8 6 -19 33 -24 59 -5 27 -14 54 -21 60 -10
9 -12 8 -8 -8z"/>
<path d="M5490 4720 c0 -5 5 -10 10 -10 6 0 10 5 10 10 0 6 -4 10 -10 10 -5 0
-10 -4 -10 -10z"/>
<path d="M5480 4650 c0 -5 5 -10 11 -10 5 0 7 5 4 10 -3 6 -8 10 -11 10 -2 0
-4 -4 -4 -10z"/>
<path d="M5040 5280 c0 -5 5 -10 10 -10 6 0 10 5 10 10 0 6 -4 10 -10 10 -5 0
-10 -4 -10 -10z"/>
<path d="M5080 5270 c0 -5 5 -10 11 -10 5 0 7 5 4 10 -3 6 -8 10 -11 10 -2 0
-4 -4 -4 -10z"/>
<path d="M5028 5233 c-9 -2 -21 -17 -27 -34 -7 -20 -17 -29 -32 -29 -21 0 -21
-1 -6 -18 14 -15 16 -41 8 -83 0 -3 -13 -11 -27 -18 -36 -16 -28 -44 14 -46
23 -1 36 4 43 18 8 15 19 18 49 14 41 -4 78 8 50 17 -8 2 -32 7 -54 10 -50 7
-55 13 -27 32 15 11 21 23 18 35 -4 16 -1 18 19 15 26 -5 32 12 12 32 -8 8 -8
15 0 25 9 10 9 16 0 25 -7 7 -14 11 -17 11 -4 -1 -14 -3 -23 -6z"/>
<path d="M5115 5150 c3 -5 8 -10 11 -10 2 0 4 5 4 10 0 6 -5 10 -11 10 -5 0
-7 -4 -4 -10z"/>
<path d="M4730 5068 c0 -4 7 -8 15 -8 8 0 15 4 15 8 0 5 -7 9 -15 9 -8 0 -15
-4 -15 -9z"/>
<path d="M4800 5020 c0 -5 5 -10 10 -10 6 0 10 5 10 10 0 6 -4 10 -10 10 -5 0
-10 -4 -10 -10z"/>
<path d="M4820 4975 c0 -19 21 -19 46 0 18 14 17 14 -13 15 -23 0 -33 -5 -33
-15z"/>
<path d="M3750 5049 c0 -5 5 -7 10 -4 6 3 10 8 10 11 0 2 -4 4 -10 4 -5 0 -10
-5 -10 -11z"/>
<path d="M3705 5030 c3 -5 8 -10 11 -10 2 0 4 5 4 10 0 6 -5 10 -11 10 -5 0
-7 -4 -4 -10z"/>
<path d="M3685 5010 c3 -5 11 -10 16 -10 6 0 7 5 4 10 -3 6 -11 10 -16 10 -6
0 -7 -4 -4 -10z"/>
<path d="M3660 4990 c0 -5 5 -10 11 -10 5 0 7 5 4 10 -3 6 -8 10 -11 10 -2 0
-4 -4 -4 -10z"/>
<path d="M4308 5073 c-28 -4 -40 -23 -15 -23 7 0 20 -9 30 -20 22 -26 42 -25
61 2 21 30 20 41 -3 33 -11 -3 -22 -1 -26 5 -3 5 -9 9 -13 9 -4 -1 -19 -4 -34
-6z"/>
<path d="M4155 5061 c-3 -5 -1 -12 5 -16 5 -3 10 1 10 9 0 18 -6 21 -15 7z"/>
<path d="M4205 5050 c6 -10 40 -8 51 3 4 4 -7 7 -25 7 -19 0 -30 -4 -26 -10z"/>
<path d="M3888 5043 c7 -3 16 -2 19 1 4 3 -2 6 -13 5 -11 0 -14 -3 -6 -6z"/>
<path d="M3920 5040 c0 -5 5 -10 11 -10 5 0 7 5 4 10 -3 6 -8 10 -11 10 -2 0
-4 -4 -4 -10z"/>
<path d="M3965 5020 c-3 -5 -1 -10 4 -10 6 0 11 5 11 10 0 6 -2 10 -4 10 -3 0
-8 -4 -11 -10z"/>
<path d="M3985 4990 c-3 -5 -1 -10 4 -10 6 0 11 5 11 10 0 6 -2 10 -4 10 -3 0
-8 -4 -11 -10z"/>
<path d="M3600 4485 c-9 -11 -10 -18 -1 -28 8 -11 2 -21 -29 -46 -22 -18 -51
-54 -65 -81 -19 -38 -29 -48 -45 -45 -23 4 -40 -21 -40 -59 0 -18 8 -30 28
-40 l27 -14 30 64 c25 53 36 66 67 79 32 12 38 20 38 44 0 29 22 61 41 61 16
0 10 46 -9 63 -23 21 -26 21 -42 2z"/>
<path d="M4025 4290 c-8 -13 21 -73 45 -95 29 -27 33 0 5 41 -14 20 -25 43
-25 50 0 16 -16 19 -25 4z"/>
<path d="M3899 4207 c-12 -10 -13 -16 -4 -34 l12 -23 11 25 c20 44 13 57 -19
32z"/>
<path d="M3676 3993 c-3 -4 -6 -16 -6 -29 0 -30 45 -42 71 -18 22 20 16 34
-11 29 -11 -2 -26 2 -34 10 -7 8 -16 11 -20 8z"/>
<path d="M5310 4470 c0 -5 7 -10 16 -10 8 0 12 5 9 10 -3 6 -10 10 -16 10 -5
0 -9 -4 -9 -10z"/>
<path d="M5238 4454 c-5 -5 -14 -7 -48 -13 -3 -1 1 -5 9 -10 18 -12 51 -2 51
15 0 15 -3 17 -12 8z"/>
<path d="M1510 3306 c0 -9 5 -16 10 -16 6 0 10 -9 10 -20 0 -11 4 -20 10 -20
15 0 7 35 -13 54 -15 15 -17 15 -17 2z"/>
<path d="M1655 3158 c11 -35 44 -85 60 -92 25 -9 25 11 0 48 -14 20 -25 41
-25 45 0 8 -23 21 -36 21 -3 0 -2 -10 1 -22z"/>
<path d="M2620 4271 c0 -5 4 -11 10 -13 9 -3 15 -55 12 -107 -2 -19 -6 -23
-27 -19 -20 4 -25 1 -25 -14 0 -10 8 -21 18 -25 9 -3 24 -12 34 -20 14 -13 17
-12 23 6 3 11 5 60 4 108 -3 85 -4 89 -26 91 -13 1 -23 -2 -23 -7z"/>
<path d="M2705 4090 c-3 -5 1 -10 10 -10 9 0 13 5 10 10 -3 6 -8 10 -10 10 -2
0 -7 -4 -10 -10z"/>
<path d="M2664 4049 c-3 -6 -15 -9 -25 -6 -16 4 -19 0 -19 -26 0 -18 9 -45 19
-61 l19 -28 12 22 c6 12 8 29 4 38 -12 27 -11 36 4 55 9 10 11 17 4 17 -6 0
-14 -5 -18 -11z"/>
<path d="M2670 3880 c0 -5 5 -10 10 -10 6 0 10 5 10 10 0 6 -4 10 -10 10 -5 0
-10 -4 -10 -10z"/>
<path d="M2690 3830 c0 -5 5 -10 10 -10 6 0 10 5 10 10 0 6 -4 10 -10 10 -5 0
-10 -4 -10 -10z"/>
<path d="M2705 3770 c3 -5 8 -10 11 -10 2 0 4 5 4 10 0 6 -5 10 -11 10 -5 0
-7 -4 -4 -10z"/>
<path d="M2640 3740 c0 -5 5 -10 10 -10 6 0 10 5 10 10 0 6 -4 10 -10 10 -5 0
-10 -4 -10 -10z"/>
<path d="M5264 4126 c-17 -13 -17 -15 -2 -21 9 -4 29 -5 44 -3 27 3 27 4 10
21 -21 21 -27 21 -52 3z"/>
<path d="M4973 3555 c0 -14 4 -24 9 -23 5 2 9 7 9 11 -1 4 -1 14 -1 22 0 8 -4
15 -9 15 -5 0 -8 -11 -8 -25z"/>
<path d="M5480 3291 c0 -6 5 -13 10 -16 6 -3 10 1 10 9 0 9 -4 16 -10 16 -5 0
-10 -4 -10 -9z"/>
<path d="M5457 3233 c-2 -4 -1 -17 3 -27 6 -19 7 -19 14 -1 7 19 -8 44 -17 28z"/>
<path d="M6060 3860 c-12 -8 -11 -10 7 -10 12 0 25 5 28 10 8 13 -15 13 -35 0z"/>
<path d="M6246 3604 c-9 -24 -7 -46 4 -39 5 3 6 13 3 22 -4 11 -3 14 5 9 7 -4
12 -1 12 8 0 21 -16 21 -24 0z"/>
<path d="M6160 3514 c0 -8 5 -12 10 -9 6 3 10 10 10 16 0 5 -4 9 -10 9 -5 0
-10 -7 -10 -16z"/>
<path d="M6132 3488 c-14 -14 -16 -38 -3 -38 15 0 30 25 22 38 -5 9 -10 9 -19
0z"/>
<path d="M3720 3744 c-17 -45 6 -58 40 -24 27 27 25 45 -5 48 -19 1 -28 -5
-35 -24z"/>
<path d="M4370 3550 c0 -5 5 -10 10 -10 6 0 10 5 10 10 0 6 -4 10 -10 10 -5 0
-10 -4 -10 -10z"/>
<path d="M3435 2700 c-4 -6 -3 -16 3 -22 13 -13 23 4 13 21 -7 10 -10 10 -16
1z"/>
<path d="M3643 2493 c9 -9 19 -14 23 -11 10 10 -6 28 -24 28 -15 0 -15 -1 1
-17z"/>
<path d="M2282 2342 c13 -34 58 -60 58 -33 0 19 -40 61 -57 61 -8 0 -8 -8 -1
-28z"/>
<path d="M1800 6803 c-8 -3 -39 -16 -68 -29 -29 -13 -79 -35 -111 -49 -84 -35
-203 -99 -274 -147 -75 -50 -201 -175 -245 -242 -34 -52 -86 -184 -122 -306
-11 -41 -34 -108 -50 -148 -15 -40 -23 -69 -16 -64 6 5 72 57 146 117 225 181
259 217 435 470 116 167 188 258 269 343 32 34 57 62 55 61 -2 0 -11 -3 -19
-6z"/>
<path d="M5921 6743 c82 -86 133 -153 298 -385 126 -178 191 -250 312 -350 40
-33 203 -165 238 -192 11 -9 11 -5 -1 19 -9 17 -39 104 -68 195 -28 91 -69
201 -91 245 -63 132 -190 256 -363 358 -60 35 -368 177 -384 177 -3 0 24 -30
59 -67z"/>
<path d="M1027 6415 c-185 -65 -311 -192 -384 -385 -17 -47 -34 -97 -37 -110
-3 -14 -7 -34 -9 -45 -23 -103 -30 -203 -28 -395 3 -278 6 -449 8 -447 0 1 24
37 53 79 69 104 186 227 290 305 208 156 410 375 466 503 4 8 15 33 25 55 23
52 47 139 54 195 l6 45 -27 -45 c-73 -122 -145 -192 -369 -360 -194 -145 -276
-223 -330 -315 -21 -36 -39 -65 -40 -65 -1 0 16 60 37 132 31 108 70 276 104
444 28 141 97 278 186 367 37 37 67 67 65 67 -1 0 -33 -11 -70 -25z"/>
<path d="M6649 6371 c103 -102 148 -201 196 -423 31 -144 67 -295 95 -393 11
-38 22 -81 26 -95 5 -23 4 -24 -7 -5 -89 149 -150 209 -409 397 -159 116 -260
218 -310 316 -12 24 -25 41 -27 38 -12 -12 32 -179 68 -254 79 -170 209 -318
444 -507 158 -126 252 -222 326 -334 28 -42 52 -77 52 -78 1 -1 3 49 4 110 1
62 3 195 4 297 4 228 -4 341 -35 463 -43 168 -97 274 -187 365 -71 73 -173
133 -271 160 -35 10 -35 9 31 -57z"/>
<path d="M7160 5927 c0 -4 9 -25 20 -46 45 -88 58 -170 55 -328 -1 -81 -5
-159 -8 -173 -6 -29 -14 -91 -22 -175 -4 -33 -9 -68 -11 -78 -7 -22 -6 -275 0
-306 3 -13 8 -63 12 -110 3 -47 7 -97 9 -110 2 -13 1 -21 -2 -17 -4 4 -8 15
-10 26 -6 38 -46 147 -81 220 -66 134 -179 266 -362 420 -104 88 -153 141
-185 202 -16 31 -31 56 -32 54 -1 -1 6 -39 17 -83 11 -45 21 -92 24 -105 6
-34 40 -136 67 -198 33 -79 98 -184 219 -355 156 -221 185 -264 239 -367 48
-90 101 -227 104 -268 2 -36 15 -6 20 50 7 81 39 195 112 406 75 216 92 277
110 394 12 80 12 264 1 320 -39 186 -63 258 -129 384 -37 73 -167 261 -167
243z"/>
<path d="M464 5862 c-128 -176 -205 -355 -239 -557 -13 -73 -13 -239 0 -326
16 -108 43 -201 117 -414 61 -174 106 -340 110 -407 3 -48 9 -40 37 52 42 134
110 257 262 470 253 356 297 441 353 675 39 161 39 166 15 120 -42 -81 -73
-116 -192 -219 -282 -243 -383 -390 -460 -671 -3 -11 -4 -2 -2 20 3 22 8 76
11 119 3 44 8 89 10 100 6 28 7 304 1 313 -3 5 -8 37 -12 73 -3 36 -11 97 -17
135 -6 39 -12 133 -13 210 -4 150 13 246 55 327 29 55 11 46 -36 -20z"/>
<path d="M7555 4932 c14 -25 7 -206 -10 -293 -24 -117 -73 -246 -193 -509 -56
-124 -98 -246 -160 -470 -16 -58 -37 -121 -46 -140 -9 -19 -14 -26 -11 -16 3
11 8 35 11 55 3 20 7 43 11 51 3 8 7 67 9 130 6 213 -36 347 -191 604 -36 59
-65 110 -65 112 0 3 -10 21 -23 42 -27 44 -97 197 -102 223 -2 10 -8 26 -13
36 -10 17 -8 -182 2 -252 3 -16 8 -52 11 -80 12 -89 46 -258 72 -355 54 -199
62 -229 111 -380 65 -200 69 -227 66 -409 l-3 -152 34 56 c32 52 146 204 188
250 56 61 185 236 223 301 56 100 135 348 150 474 2 19 8 58 12 85 9 58 8 244
-2 325 -10 77 -66 303 -79 315 -7 7 -8 6 -2 -3z"/>
<path d="M116 4921 c-14 -22 -66 -246 -73 -312 -13 -125 -8 -317 12 -422 14
-70 66 -259 90 -322 14 -38 42 -98 61 -132 30 -54 161 -230 232 -313 56 -64
129 -161 169 -222 24 -38 46 -68 47 -68 2 0 1 15 -3 33 -8 34 -6 309 2 342 3
11 23 76 45 145 153 474 208 732 216 1008 2 62 0 110 -3 105 -4 -4 -15 -33
-26 -63 -25 -77 -90 -203 -184 -363 -148 -252 -180 -344 -186 -542 -3 -96 7
-195 30 -289 18 -74 -35 75 -71 199 -65 226 -86 288 -149 430 -127 291 -145
335 -169 416 -35 122 -51 284 -34 352 7 27 4 35 -6 18z"/>
<path d="M870 3815 c-1 -55 -3 -111 -6 -125 -2 -14 -11 -61 -20 -105 -14 -77
-17 -92 -30 -152 -23 -116 -32 -202 -32 -306 1 -166 30 -288 108 -451 21 -44
38 -81 37 -83 -2 -1 -43 57 -92 129 -128 186 -158 222 -360 429 -234 240 -293
315 -354 442 -41 85 -73 191 -62 203 3 4 1 4 -5 1 -13 -7 -10 -181 6 -298 38
-284 178 -543 397 -736 36 -32 71 -63 77 -68 30 -28 174 -130 276 -197 148
-97 419 -268 423 -268 2 0 -18 44 -44 98 -44 91 -75 170 -85 217 -2 11 -7 34
-10 50 -3 17 -9 48 -14 70 -4 22 -11 63 -14 90 -4 28 -8 61 -11 75 -2 14 -7
59 -10 100 -3 41 -8 91 -10 110 -2 19 -6 71 -10 115 -3 44 -8 94 -10 110 -2
17 -7 55 -10 85 -3 30 -7 66 -9 80 -3 14 -7 45 -10 70 -11 88 -55 257 -90 350
l-25 65 -1 -100z"/>
<path d="M6788 3859 c-47 -124 -88 -293 -103 -418 -3 -23 -7 -55 -9 -70 -2
-14 -7 -62 -11 -106 -4 -44 -9 -93 -10 -110 -2 -16 -6 -63 -10 -103 -3 -41 -8
-91 -10 -113 -2 -22 -7 -64 -10 -94 -23 -235 -75 -421 -164 -577 -11 -21 -18
-38 -15 -38 5 0 383 239 479 303 58 39 205 146 215 157 3 3 40 36 83 73 274
242 407 548 411 944 1 101 -4 107 -23 23 -17 -79 -82 -207 -150 -297 -65 -85
-109 -133 -295 -323 -109 -112 -157 -164 -207 -227 -9 -12 -41 -56 -70 -99
-64 -96 -139 -198 -139 -191 0 3 18 41 39 84 86 172 112 291 107 488 -4 127
-24 263 -73 470 -2 11 -7 72 -9 135 -7 143 -7 143 -26 89z"/>
<path d="M1146 3043 c26 -89 98 -413 121 -548 9 -55 54 -199 85 -274 44 -104
132 -232 225 -325 72 -72 75 -77 38 -58 -22 11 -89 57 -149 102 -158 119 -217
155 -446 270 -323 162 -417 220 -532 328 -76 72 -126 134 -177 222 -36 63 -35
45 6 -80 100 -305 421 -668 728 -822 92 -47 272 -100 445 -131 96 -18 148 -28
170 -32 14 -3 41 -8 60 -11 43 -7 208 -49 235 -60 10 -4 -9 21 -44 56 -77 79
-158 199 -210 312 -22 47 -79 200 -126 339 -92 271 -154 406 -242 534 -45 64
-178 238 -213 278 -4 5 7 -41 26 -100z"/>
<path d="M6476 3038 c-192 -243 -248 -349 -366 -695 -51 -146 -109 -305 -131
-351 -52 -112 -133 -233 -208 -310 -34 -34 -60 -62 -59 -62 2 0 31 9 65 20 51
16 268 62 403 85 181 31 361 85 472 141 152 77 396 293 528 469 94 126 175
296 215 455 4 14 -14 -10 -40 -54 -42 -71 -168 -210 -247 -273 -56 -45 -230
-144 -427 -243 -233 -116 -292 -151 -446 -266 -61 -45 -133 -94 -160 -109
l-50 -27 62 61 c122 119 204 242 258 386 15 39 29 77 31 85 17 67 53 221 57
245 23 142 89 422 121 513 8 23 14 42 13 42 -1 0 -42 -51 -91 -112z"/>
<path d="M1742 2169 c52 -101 104 -200 115 -219 144 -251 274 -368 495 -445
58 -21 65 -25 33 -21 -22 3 -60 9 -85 15 -25 5 -65 12 -90 16 -25 3 -56 8 -70
10 -34 5 -149 15 -240 20 -287 17 -336 21 -455 40 -231 36 -407 114 -544 239
-40 37 -43 38 -26 11 149 -238 474 -484 721 -544 161 -40 404 -47 567 -15 12
2 39 6 62 10 74 11 179 34 375 85 107 28 206 52 220 55 14 3 49 9 79 14 30 6
56 12 58 14 2 2 -20 6 -48 10 -75 10 -282 81 -354 120 -34 19 -88 55 -121 80
-58 44 -93 75 -289 264 -169 163 -250 236 -360 323 -151 120 -149 125 -43 -82z"/>
<path d="M5950 2293 c-82 -62 -234 -191 -320 -273 -30 -29 -122 -116 -203
-194 -82 -77 -176 -160 -210 -184 -111 -77 -262 -139 -422 -172 -85 -18 -85
-19 20 -36 22 -4 144 -33 270 -65 306 -77 380 -91 540 -106 233 -21 436 4 590
73 227 100 465 302 590 499 15 25 9 21 -36 -19 -114 -103 -286 -187 -433 -211
-17 -3 -38 -8 -47 -11 -10 -2 -32 -7 -50 -9 -19 -2 -50 -6 -69 -9 -47 -7 -138
-15 -230 -21 -291 -18 -431 -31 -531 -50 -165 -32 -174 -32 -73 4 206 71 324
174 462 402 40 66 235 439 230 439 -2 0 -37 -25 -78 -57z"/>
<path d="M3438 1455 c-2 -2 -34 -5 -72 -6 -191 -7 -371 -59 -746 -217 -293
-123 -443 -163 -609 -163 -155 0 -302 38 -447 115 -35 19 -64 31 -64 27 0 -9
128 -132 175 -168 103 -78 228 -137 372 -174 114 -30 344 -33 468 -6 195 42
351 116 565 268 274 195 366 230 570 220 l45 -2 -101 -48 c-257 -122 -527
-309 -731 -504 l-51 -49 27 -27 c15 -14 50 -47 79 -72 l53 -45 162 161 c253
250 440 398 618 490 l88 46 73 -37 c197 -98 376 -241 665 -530 l132 -132 57
51 c32 29 68 61 81 73 l23 21 -64 60 c-194 185 -474 377 -719 493 -100 48
-101 49 -62 51 207 11 303 -26 569 -215 307 -219 527 -297 821 -291 216 5 366
51 555 174 54 35 214 180 206 188 -2 2 -41 -15 -87 -37 -162 -79 -313 -110
-477 -98 -53 4 -107 9 -118 12 -72 16 -190 50 -198 57 -6 5 -16 9 -24 9 -7 0
-91 32 -185 72 -326 135 -501 194 -634 213 -23 3 -57 8 -75 11 -41 5 -244 5
-278 0 -14 -3 -43 -7 -65 -10 -65 -9 -138 -24 -168 -35 -18 -7 -35 -8 -45 -2
-9 5 -20 9 -25 9 -4 1 -31 6 -60 11 -28 6 -63 14 -77 16 -14 3 -61 8 -105 11
-44 3 -88 7 -97 8 -9 2 -18 2 -20 1z"/>
</g>
</svg>
